# xmcd
#
# Track frame offsets:
# 150
# 8985
# 23255
# 37587
# 54173
# 66930
# 85104
# 96946
# 112598
# 125289
# 139878
# 153984
#
# Disc length: 2290 seconds
#
#
# Revision: 0
# Processed by: cddbd v1.5.2PL0 Copyright (c) Steve Scherf et al.
# Submitted via: FreeRIP 2.951 
#
DISCID=7f08f00c
DTITLE=Jimmy Mattingly - Limerock
DYEAR=1900
DGENRE=Bluegrass
TTITLE0=Limerock
TTITLE1=Whiskey Before Breakfast
TTITLE2=Grey Eagle
TTITLE3=Kentucky Waltz
TTITLE4=Done Gone
TTITLE5=Sally Goodin
TTITLE6=Highlevel Hornpipe
TTITLE7=Katy Hill
TTITLE8=Uncle Herman's Hornpipe
TTITLE9=Canadian Waltz
TTITLE10=Texas Gallop
TTITLE11=Farther Along
EXTD=
EXTT0=
EXTT1=
EXTT2=
EXTT3=
EXTT4=
EXTT5=
EXTT6=
EXTT7=
EXTT8=
EXTT9=
EXTT10=
EXTT11=
PLAYORDER=
